<svg width="161" height="60" viewBox="0 0 161 60" fill="none" xmlns="http://www.w3.org/2000/svg">
<path d="M117.506 42.929L139.143 0.217953L160.681 42.929L139.143 14.0622L117.506 42.929Z" fill="#FAFAF9"/>
<path fill-rule="evenodd" clip-rule="evenodd" d="M139.143 0L160.769 42.8848L160.603 42.9876L139.143 14.2263L117.585 42.9878L117.418 42.8846L139.143 0ZM118.102 41.9697L139.143 13.8981L160.086 41.9666L139.143 0.435904L118.102 41.9697Z" fill="#FAFAF9"/>
<path d="M84.3621 43.5181V0.316139L91.3449 22.0153L84.3621 43.5181Z" fill="#FAFAF9"/>
<path fill-rule="evenodd" clip-rule="evenodd" d="M84.2638 0.316139L84.4557 0.286107L91.4483 22.0154L84.4557 43.5484L84.2638 43.5181V0.316139ZM84.4605 0.942767V42.8968L91.2416 22.0152L84.4605 0.942767Z" fill="#FAFAF9"/>
<path d="M102.644 6.98566L92.9185 0.217953H107.011L114.752 12.9572L109.591 22.014L114.752 30.8717L107.011 44.009H94.4072L102.644 37.3408L106.217 30.8717L101.354 22.014L106.217 12.9572L102.644 6.98566Z" fill="#FAFAF9"/>
<path fill-rule="evenodd" clip-rule="evenodd" d="M92.6054 0.119766H107.066L114.866 12.9556L109.705 22.0134L114.866 30.872L107.067 44.1072H94.1297L102.568 37.2766L106.105 30.8715L101.242 22.0145L106.104 12.9598L102.571 7.05414L92.6054 0.119766ZM93.2316 0.316139L102.718 6.91718L106.33 12.9546L101.466 22.0134L106.329 30.8718L102.721 37.405L94.6846 43.9108H106.955L114.638 30.8714L109.478 22.0145L114.638 12.9588L106.956 0.316139H93.2316Z" fill="#FAFAF9"/>
<path d="M32.3352 43.0271L53.9721 0.316139L75.5106 43.0271L53.9721 14.1604L32.3352 43.0271Z" fill="#FAFAF9"/>
<path fill-rule="evenodd" clip-rule="evenodd" d="M53.9723 0.0981862L75.5985 42.983L75.4318 43.0858L53.9719 14.3245L32.4139 43.086L32.2474 42.9828L53.9723 0.0981862ZM32.9313 42.0679L53.9723 13.9963L74.9152 42.0648L53.9719 0.53409L32.9313 42.0679Z" fill="#FAFAF9"/>
<path d="M9.32138 28.5938L0.174875 0.512511L17.4844 28.5938L11.8785 36.9396H18.2712L43.8421 0.512511L22.0085 43.6163H0.174875L9.32138 28.5938Z" fill="#FAFAF9"/>
<path fill-rule="evenodd" clip-rule="evenodd" d="M18.22 36.8414L43.7615 0.456161L43.9298 0.556819L22.069 43.7144H0L9.2139 28.5813L0.0813452 0.542873L0.258634 0.461051L17.6013 28.596L12.0628 36.8414H18.22ZM43.135 1.69092L18.3224 37.0378H11.6941L17.3675 28.5915L0.523565 1.26553L9.42887 28.6063L0.349748 43.5181H21.948L43.135 1.69092Z" fill="#FAFAF9"/>
<path d="M0.270864 59.9152V55.2918H1.75083C2.07184 55.2918 2.35509 55.3271 2.60057 55.3978C2.85077 55.4685 3.04668 55.5887 3.18831 55.7584C3.33465 55.9233 3.40782 56.1472 3.40782 56.4299C3.40782 56.6467 3.35117 56.8518 3.23787 57.045C3.12457 57.2335 2.96643 57.3631 2.76344 57.4338V57.4621C3.01836 57.5186 3.22843 57.6388 3.39366 57.8226C3.56361 58.0017 3.64858 58.2468 3.64858 58.5578C3.64858 58.8642 3.57069 59.1187 3.4149 59.3213C3.26384 59.524 3.05376 59.6748 2.78468 59.7738C2.51559 59.868 2.2111 59.9152 1.87121 59.9152H0.270864ZM1.09228 57.2005H1.68002C2.00103 57.2005 2.23471 57.1416 2.38105 57.0238C2.5274 56.906 2.60057 56.7481 2.60057 56.5501C2.60057 56.3239 2.52504 56.1637 2.37397 56.0694C2.22291 55.9751 1.99631 55.928 1.69418 55.928H1.09228V57.2005ZM1.09228 59.2789H1.78623C2.12613 59.2789 2.38813 59.2177 2.57224 59.0951C2.75635 58.9679 2.84841 58.7746 2.84841 58.5154C2.84841 58.2704 2.75871 58.0936 2.57932 57.9852C2.39994 57.8721 2.13557 57.8156 1.78623 57.8156H1.09228V59.2789Z" fill="#FAFAF9"/>
<path d="M5.45231 59.9152V58.1973L4.0644 55.2918H4.94246L5.44523 56.4724C5.51132 56.6467 5.57741 56.8164 5.6435 56.9814C5.70959 57.1416 5.7804 57.3113 5.85593 57.4904H5.88426C5.95979 57.3113 6.03296 57.1416 6.10377 56.9814C6.17459 56.8164 6.24304 56.6467 6.30913 56.4724L6.81189 55.2918H7.66871L6.27372 58.1973V59.9152H5.45231Z" fill="#FAFAF9"/>
<path d="M12.0839 60C11.6968 60 11.3451 59.9081 11.0288 59.7243C10.7125 59.5405 10.4599 59.2719 10.2711 58.9184C10.087 58.5602 9.99491 58.1266 9.99491 57.6176C9.99491 57.1133 10.0893 56.6821 10.2782 56.3239C10.4717 55.961 10.729 55.6853 11.05 55.4968C11.371 55.3036 11.7251 55.2069 12.1122 55.2069C12.4049 55.2069 12.6645 55.2659 12.8911 55.3837C13.1177 55.5015 13.3042 55.6382 13.4505 55.7937L13.0115 56.3239C12.8935 56.2014 12.7613 56.1048 12.6149 56.0341C12.4733 55.9587 12.3128 55.921 12.1334 55.921C11.8832 55.921 11.659 55.9893 11.4607 56.126C11.2672 56.2579 11.1137 56.4488 11.0004 56.6986C10.8919 56.9484 10.8376 57.2476 10.8376 57.5964C10.8376 58.1242 10.9532 58.539 11.1846 58.8406C11.4159 59.1375 11.7251 59.286 12.1122 59.286C12.3199 59.286 12.504 59.2436 12.6645 59.1587C12.825 59.0692 12.9714 58.9537 13.1035 58.8123L13.5426 59.3284C13.3537 59.5452 13.1366 59.7125 12.8911 59.8303C12.6504 59.9434 12.3813 60 12.0839 60Z" fill="#FAFAF9"/>
<path d="M14.6107 59.9152V55.2918H15.4321V57.151H17.3086V55.2918H18.13V59.9152H17.3086V57.865H15.4321V59.9152H14.6107Z" fill="#FAFAF9"/>
<path d="M19.6012 59.9152V55.2918H22.3911V55.9846H20.4226V57.1652H22.0867V57.858H20.4226V59.2224H22.462V59.9152H19.6012Z" fill="#FAFAF9"/>
<path d="M23.7065 59.9152V55.2918H26.5036V55.9846H24.5279V57.2924H26.2132V57.9852H24.5279V59.9152H23.7065Z" fill="#FAFAF9"/>
<path d="M30.6764 60C30.3649 60 30.0627 59.9411 29.7701 59.8233C29.4821 59.7054 29.2272 59.5381 29.0053 59.3213L29.4868 58.7628C29.652 58.9184 29.8409 59.0456 30.0533 59.1446C30.2657 59.2389 30.4782 59.286 30.6906 59.286C30.955 59.286 31.1556 59.2318 31.2925 59.1234C31.4294 59.015 31.4979 58.8713 31.4979 58.6922C31.4979 58.4989 31.4294 58.3599 31.2925 58.2751C31.1603 58.1902 30.9904 58.103 30.7827 58.0135L30.1454 57.7378C29.9943 57.6718 29.8456 57.587 29.6992 57.4833C29.5576 57.3796 29.4396 57.2476 29.3452 57.0874C29.2555 56.9272 29.2106 56.7339 29.2106 56.5077C29.2106 56.2626 29.2767 56.0435 29.4089 55.8503C29.5458 55.6523 29.7299 55.4968 29.9612 55.3837C30.1973 55.2659 30.4664 55.2069 30.7685 55.2069C31.0376 55.2069 31.2972 55.2611 31.5474 55.3695C31.7976 55.4732 32.0124 55.6146 32.1918 55.7937L31.774 56.3168C31.6277 56.1943 31.4719 56.0977 31.3067 56.027C31.1462 55.9563 30.9668 55.921 30.7685 55.921C30.5513 55.921 30.3743 55.9704 30.2374 56.0694C30.1052 56.1637 30.0391 56.2956 30.0391 56.4653C30.0391 56.5831 30.0722 56.6821 30.1383 56.7622C30.2091 56.8376 30.3011 56.9036 30.4144 56.9602C30.5277 57.012 30.6481 57.0638 30.7756 57.1157L31.4058 57.3772C31.6796 57.4951 31.9038 57.6506 32.0785 57.8438C32.2532 58.0323 32.3405 58.2939 32.3405 58.6285C32.3405 58.8783 32.2744 59.1069 32.1422 59.3143C32.0101 59.5216 31.8189 59.6889 31.5687 59.8162C31.3232 59.9387 31.0258 60 30.6764 60Z" fill="#FAFAF9"/>
<path d="M33.4777 59.9152V55.2918H34.2991V57.151H36.1756V55.2918H36.997V59.9152H36.1756V57.865H34.2991V59.9152H33.4777Z" fill="#FAFAF9"/>
<path d="M39.417 57.455L39.2542 58.0206H40.4367L40.2738 57.455C40.1983 57.2099 40.1251 56.9578 40.0543 56.6986C39.9882 56.4394 39.9221 56.1825 39.8561 55.928H39.8277C39.7664 56.1872 39.7003 56.4464 39.6295 56.7057C39.5634 56.9602 39.4926 57.2099 39.417 57.455ZM37.8662 59.9152L39.3745 55.2918H40.3376L41.8459 59.9152H40.982L40.6208 58.6639H39.063L38.7018 59.9152H37.8662Z" fill="#FAFAF9"/>
<path d="M42.7118 59.9152V55.2918H43.5332V57.151H45.4097V55.2918H46.2311V59.9152H45.4097V57.865H43.5332V59.9152H42.7118Z" fill="#FAFAF9"/>
<path d="M47.7022 59.9152V55.2918H50.4922V55.9846H48.5237V57.1652H50.1877V57.858H48.5237V59.2224H50.563V59.9152H47.7022Z" fill="#FAFAF9"/>
<path d="M51.8076 59.9152V55.2918H54.5976V55.9846H52.629V57.1652H54.2931V57.858H52.629V59.2224H54.6684V59.9152H51.8076Z" fill="#FAFAF9"/>
<path d="M55.9129 59.9152V55.2918H56.7556L58.2001 57.8933L58.6746 58.876H58.7029C58.684 58.6403 58.6604 58.3835 58.6321 58.1054C58.6085 57.8273 58.5967 57.5587 58.5967 57.2995V55.2918H59.3827V59.9152H58.54L57.0955 57.3136L56.621 56.331H56.5927C56.6116 56.576 56.6328 56.8329 56.6564 57.1015C56.6847 57.3702 56.6989 57.6341 56.6989 57.8933V59.9152H55.9129Z" fill="#FAFAF9"/>
</svg>
